<svg width="21" height="21" viewBox="0 0 21 21" fill="none" xmlns="http://www.w3.org/2000/svg">
<path d="M16.2333 11.4507H1.33333C0.955556 11.4507 0.638889 11.3229 0.383333 11.0673C0.127778 10.8118 0 10.4951 0 10.1173C0 9.73956 0.127778 9.42289 0.383333 9.16733C0.638889 8.91178 0.955556 8.784 1.33333 8.784H16.2333L9.7 2.25067C9.43333 1.984 9.30556 1.67289 9.31667 1.31733C9.32778 0.961778 9.46667 0.650667 9.73333 0.384C10 0.139556 10.3111 0.0117778 10.6667 0.000666667C11.0222 -0.0104444 11.3333 0.117333 11.6 0.384L20.4 9.184C20.5333 9.31733 20.6278 9.46178 20.6833 9.61733C20.7389 9.77289 20.7667 9.93956 20.7667 10.1173C20.7667 10.2951 20.7389 10.4618 20.6833 10.6173C20.6278 10.7729 20.5333 10.9173 20.4 11.0507L11.6 19.8507C11.3556 20.0951 11.05 20.2173 10.6833 20.2173C10.3167 20.2173 10 20.0951 9.73333 19.8507C9.46667 19.584 9.33333 19.2673 9.33333 18.9007C9.33333 18.534 9.46667 18.2173 9.73333 17.9507L16.2333 11.4507Z" fill="#70E61C"/>
</svg>
