<svg width="21" height="21" viewBox="0 0 21 21" fill="none" xmlns="http://www.w3.org/2000/svg">
<path d="M4.53333 11.4333L11.0667 17.9667C11.3333 18.2333 11.4611 18.5444 11.45 18.9C11.4389 19.2556 11.3 19.5667 11.0333 19.8333C10.7667 20.0778 10.4556 20.2056 10.1 20.2167C9.74444 20.2278 9.43333 20.1 9.16667 19.8333L0.366667 11.0333C0.233333 10.9 0.138889 10.7556 0.0833333 10.6C0.0277778 10.4444 0 10.2778 0 10.1C0 9.92222 0.0277778 9.75556 0.0833333 9.6C0.138889 9.44444 0.233333 9.3 0.366667 9.16667L9.16667 0.366667C9.41111 0.122222 9.71667 0 10.0833 0C10.45 0 10.7667 0.122222 11.0333 0.366667C11.3 0.633333 11.4333 0.95 11.4333 1.31667C11.4333 1.68333 11.3 2 11.0333 2.26667L4.53333 8.76667H19.4333C19.8111 8.76667 20.1278 8.89444 20.3833 9.15C20.6389 9.40555 20.7667 9.72222 20.7667 10.1C20.7667 10.4778 20.6389 10.7944 20.3833 11.05C20.1278 11.3056 19.8111 11.4333 19.4333 11.4333H4.53333Z" fill="#70E61C"/>
</svg>
