<svg width="39" height="32" viewBox="0 0 39 32" fill="none" xmlns="http://www.w3.org/2000/svg">
<rect width="39" height="32" rx="10" fill="#70E61C"/>
<path d="M13.85 9.364C15.182 9.364 16.346 9.628 17.342 10.156C18.338 10.684 19.106 11.428 19.646 12.388C20.198 13.336 20.474 14.434 20.474 15.682C20.474 16.918 20.198 18.016 19.646 18.976C19.106 19.936 18.332 20.68 17.324 21.208C16.328 21.736 15.17 22 13.85 22H9.116V9.364H13.85ZM13.652 19.336C14.816 19.336 15.722 19.018 16.37 18.382C17.018 17.746 17.342 16.846 17.342 15.682C17.342 14.518 17.018 13.612 16.37 12.964C15.722 12.316 14.816 11.992 13.652 11.992H12.194V19.336H13.652ZM25.2721 11.83V14.386H29.3941V16.762H25.2721V19.534H29.9341V22H22.1941V9.364H29.9341V11.83H25.2721Z" fill="white"/>
</svg>
