<svg width="107" height="58" viewBox="0 0 107 58" fill="none" xmlns="http://www.w3.org/2000/svg">
<rect width="107" height="58" rx="10" fill="#70E61C"/>
<path d="M41.638 20.969V22.671H37.268V37H35.175V22.671H30.782V20.969H41.638ZM55.7144 30.215C55.7144 30.6137 55.6914 31.0353 55.6454 31.48H45.5714C45.648 32.722 46.0697 33.6957 46.8364 34.401C47.6184 35.091 48.5614 35.436 49.6654 35.436C50.57 35.436 51.3214 35.229 51.9194 34.815C52.5327 34.3857 52.962 33.8183 53.2074 33.113H55.4614C55.124 34.3243 54.4494 35.3133 53.4374 36.08C52.4254 36.8313 51.168 37.207 49.6654 37.207C48.4694 37.207 47.396 36.9387 46.4454 36.402C45.51 35.8653 44.774 35.1063 44.2374 34.125C43.7007 33.1283 43.4324 31.9783 43.4324 30.675C43.4324 29.3717 43.693 28.2293 44.2144 27.248C44.7357 26.2667 45.464 25.5153 46.3994 24.994C47.35 24.4573 48.4387 24.189 49.6654 24.189C50.8614 24.189 51.9194 24.4497 52.8394 24.971C53.7594 25.4923 54.4647 26.213 54.9554 27.133C55.4614 28.0377 55.7144 29.065 55.7144 30.215ZM53.5524 29.778C53.5524 28.9807 53.376 28.2983 53.0234 27.731C52.6707 27.1483 52.1877 26.7113 51.5744 26.42C50.9764 26.1133 50.3094 25.96 49.5734 25.96C48.5154 25.96 47.6107 26.2973 46.8594 26.972C46.1234 27.6467 45.7017 28.582 45.5944 29.778H53.5524ZM65.0551 37L62.0651 32.308L59.1901 37H57.0051L61.0761 30.744L57.0051 24.396H59.3741L62.3641 29.065L65.2161 24.396H67.4011L63.3531 30.629L67.4241 37H65.0551ZM72.0359 26.121V33.55C72.0359 34.1633 72.1662 34.6003 72.4269 34.861C72.6876 35.1063 73.1399 35.229 73.7839 35.229H75.3249V37H73.4389C72.2736 37 71.3996 36.7317 70.8169 36.195C70.2342 35.6583 69.9429 34.7767 69.9429 33.55V26.121H68.3099V24.396H69.9429V21.222H72.0359V24.396H75.3249V26.121H72.0359Z" fill="white"/>
</svg>
